<svg id="Layer_1" enable-background="new 0 0 512 512" height="512" viewBox="0 0 512 512" width="512" xmlns="http://www.w3.org/2000/svg"><g><g><path d="m280 176h-48c-22.091 0-40-17.909-40-40v-80c0-22.091 17.909-40 40-40h48c22.091 0 40 17.909 40 40v80c0 22.091-17.909 40-40 40z" fill="#fab991"/></g><g><path d="m352 192h-192c-26.51 0-48 21.49-48 48v64h48v192h80v-16h32v16h80v-192h48v-64c0-26.51-21.49-48-48-48z" fill="#fab991"/></g><g><path d="m232 176h48v16h-48z" fill="#f0915a"/></g><g><path d="m160 272v32h-10.667v-21.333c0-5.891 4.776-10.667 10.667-10.667z" fill="#f0915a"/></g><g><path d="m282.667 464v32h-10.667v-21.333c0-5.891 4.776-10.667 10.667-10.667z" fill="#f0915a"/></g><g><path d="m229.333 464v32h10.667v-21.333c0-5.891-4.776-10.667-10.667-10.667z" fill="#f0915a"/></g><g><path d="m352 272v32h10.667v-21.333c0-5.891-4.776-10.667-10.667-10.667z" fill="#f0915a"/></g><g><path d="m192 64h64v-48h-24c-22.091 0-40 17.909-40 40z" fill="#fac3c8"/></g><g><path d="m256 16h24c22.091 0 40 17.909 40 40v40c-4.418 0-8-3.582-8-8v-24c0-13.255-10.745-24-24-24h-32z" fill="#555a6e"/></g><g><path d="m232 176h24v-112h-64v72c0 22.091 17.909 40 40 40z" fill="#d7e6f0"/></g><g><path d="m320 128v-32c8.837 0 16 7.163 16 16 0 8.837-7.163 16-16 16z" fill="#f0915a"/></g><g><path d="m192 128v-32c-8.837 0-16 7.163-16 16 0 8.837 7.163 16 16 16z" fill="#f0915a"/></g><g><circle cx="224" cy="96" fill="#555a6e" r="16"/></g><g><circle cx="288" cy="96" fill="#555a6e" r="8"/></g><g><path d="m216 172.662v-20.662c0-13.255-10.745-24-24-24v8c0 16.401 9.875 30.489 24 36.662z" fill="#555a6e"/></g><g><path d="m232 152h24v-16h-24c-4.418 0-8 3.582-8 8 0 4.418 3.582 8 8 8z" fill="#a5c3dc"/></g><g><path d="m256 146.667h18.667c2.945 0 5.333-2.388 5.333-5.333h-24z" fill="#555a6e"/></g><g fill="#f58caa"><path d="m224 28c-2.209 0-4 1.791-4 4s1.791 4 4 4h9.333c4.411 0 8-3.589 8-8v-12h-8v12z"/><path d="m224 57.333c2.209 0 4-1.791 4-4s-1.791-4-4-4h-12v-5.333c0-4.411-3.589-8-8-8h-6.635c-1.452 2.509-2.646 5.185-3.531 8h10.166v20h8v-6.667z"/><path d="m245.333 41.333c-2.209 0-4 1.791-4 4s1.791 4 4 4h10.667v-8z"/></g><g><path d="m256 128v-24c4.418 0 8 3.582 8 8v8c0 4.418-3.582 8-8 8z" fill="#f0915a"/></g><g><path d="m256 128v-24c-4.418 0-8 3.582-8 8v8c0 4.418 3.582 8 8 8z" fill="#555a6e"/></g><g><path d="m320 464h-128c-8.837 0-16-7.163-16-16v-176c0-35.346 28.654-64 64-64h32c35.346 0 64 28.654 64 64v176c0 8.837-7.163 16-16 16z" fill="#555a6e"/></g><g><path d="m288 440h-64c-13.255 0-24-10.745-24-24 0-13.255 10.745-24 24-24h64c13.255 0 24 10.745 24 24 0 13.255-10.745 24-24 24z" fill="#f05a4b"/></g><g><path d="m256 392c2.946 0 5.333 2.388 5.333 5.333v32h-10.667v-32c.001-2.945 2.388-5.333 5.334-5.333z" fill="#d73728"/></g><g><path d="m234.667 410.667c2.946 0 5.333 2.388 5.333 5.333v24h-10.667v-24c0-2.946 2.388-5.333 5.334-5.333z" fill="#d73728"/></g><g><path d="m208 392h10.667v18.667c0 2.945-2.388 5.333-5.333 5.333-2.946 0-5.333-2.388-5.333-5.333v-18.667z" fill="#d73728"/></g><g><path d="m277.333 410.667c-2.946 0-5.333 2.388-5.333 5.333v24h10.667v-24c0-2.946-2.388-5.333-5.334-5.333z" fill="#d73728"/></g><g><path d="m304 392h-10.667v18.667c0 2.945 2.388 5.333 5.333 5.333 2.945 0 5.333-2.388 5.333-5.333v-18.667z" fill="#d73728"/></g><g><path d="m224 328v8h16c13.255 0 24 10.745 24 24 0 13.255-10.745 24-24 24h-16v8h64c17.673 0 32-14.327 32-32 0-17.673-14.327-32-32-32z" fill="#f58caa"/></g><g><path d="m288 328v16c0 8.837 7.163 16 16 16h16c0-17.673-14.327-32-32-32z" fill="#fac3c8"/></g><g><path d="m208 320h24c8.837 0 16-7.163 16-16v-80h-8c-26.51 0-48 21.49-48 48v32c0 8.837 7.163 16 16 16z" fill="#f05a4b"/></g><g><path d="m232 304h-24c-8.837 0-16-7.163-16-16v16c0 8.837 7.163 16 16 16h24c8.837 0 16-7.163 16-16v-16c0 8.837-7.163 16-16 16z" fill="#d73728"/></g><g><path d="m304 320h-24c-8.837 0-16-7.163-16-16v-80h8c26.51 0 48 21.49 48 48v32c0 8.837-7.163 16-16 16z" fill="#f05a4b"/></g><g><path d="m280 304h24c8.837 0 16-7.163 16-16v16c0 8.837-7.163 16-16 16h-24c-8.837 0-16-7.163-16-16v-16c0 8.837 7.163 16 16 16z" fill="#d73728"/></g><path d="m264 224v-48h-16v48c-8.822 0-16 7.178-16 16v16c0 4.418 3.582 8 8 8s8-3.582 8-8v-16h16v16c0 4.418 3.582 8 8 8s8-3.582 8-8v-16c0-8.822-7.178-16-16-16z" fill="#fac3c8"/><path d="m277.333 266.667c-4.018 0-7.515 2.224-9.333 5.507-1.819-3.283-5.315-5.507-9.333-5.507-5.891 0-10.667 4.776-10.667 10.667v10.666c0 17.673 14.327 32 32 32 4.418 0 8-3.582 8-8v-34.667c0-5.891-4.776-10.666-10.667-10.666z" fill="#f58caa"/><g><path d="m204.564 384h-4.564c-4.418 0-8-3.582-8-8v-24c0-17.673 14.327-32 32-32h64c4.418 0 8 3.582 8 8 0 4.932-2.694 9.469-7.023 11.831l-77.96 42.524c-1.98 1.079-4.199 1.645-6.453 1.645z" fill="#dc6950"/></g><g><path d="m237.333 333.333v34.667l51.644-28.169c4.329-2.362 7.023-6.899 7.023-11.831 0-4.418-3.582-8-8-8h-64c7.364 0 13.333 5.97 13.333 13.333z" fill="#c85541"/></g><path d="m288 384h-64c-17.645 0-32 14.355-32 32s14.355 32 32 32h8c4.418 0 8-3.582 8-8s-3.582-8-8-8h-8c-8.822 0-16-7.178-16-16s7.178-16 16-16h64c8.822 0 16 7.178 16 16s-7.178 16-16 16h-8c-17.645 0-32 14.355-32 32h16c0-8.822 7.178-16 16-16h8c17.645 0 32-14.355 32-32s-14.355-32-32-32z" fill="#fac3c8"/></g></svg>