<?xml version="1.0" standalone="no"?>
<!DOCTYPE svg PUBLIC "-//W3C//DTD SVG 20010904//EN"
 "http://www.w3.org/TR/2001/REC-SVG-20010904/DTD/svg10.dtd">
<svg version="1.0" xmlns="http://www.w3.org/2000/svg"
 width="150.000000pt" height="150.000000pt" viewBox="0 0 150.000000 150.000000"
 preserveAspectRatio="xMidYMid meet">
<metadata>
Created by potrace 1.16, written by Peter Selinger 2001-2019
</metadata>
<g transform="translate(0.000000,150.000000) scale(0.029297,-0.029297)"
fill="#000000" stroke="none">
<path d="M760 4618 c-33 -17 -51 -35 -67 -68 l-23 -44 0 -1832 0 -1831 123
-121 c220 -219 462 -390 681 -483 39 -16 87 -37 106 -46 48 -22 157 -62 203
-74 21 -5 45 -13 55 -18 48 -25 316 -75 490 -92 128 -13 438 -7 537 10 50 9
141 25 205 35 8 2 33 8 55 14 22 6 51 13 65 16 14 2 52 14 85 26 33 11 61 20
63 20 1 0 17 6 35 14 19 7 45 17 58 21 13 4 43 16 65 26 23 11 50 21 60 23 24
5 247 129 339 188 122 79 256 188 388 318 l128 125 -3 850 -3 850 -217 -377
-218 -377 0 -366 0 -365 54 0 c71 0 115 -16 122 -45 3 -12 4 -85 2 -162 -3
-132 -4 -142 -30 -180 -16 -25 -44 -49 -71 -62 l-44 -21 -1380 2 -1381 3 -39
31 c-21 16 -48 50 -61 74 l-22 45 2 1626 3 1626 28 36 c49 64 62 67 296 67
l210 0 -21 47 c-42 95 -16 210 60 273 48 40 118 60 209 60 l73 0 0 73 0 74
-302 6 c-166 4 -430 7 -588 7 -276 0 -287 -1 -330 -22z"/>
<path d="M3433 4633 l-323 -3 0 -75 0 -75 73 0 c133 0 219 -44 266 -135 27
-52 28 -144 1 -202 l-19 -43 213 0 c204 0 214 -1 246 -22 18 -13 43 -36 54
-51 21 -28 21 -40 26 -588 l5 -560 174 303 c96 167 193 337 216 378 l43 75 7
435 6 435 -23 45 c-17 33 -35 51 -68 68 -43 21 -52 22 -310 20 -146 -2 -410
-4 -587 -5z"/>
<path d="M1822 4293 c-24 -10 -34 -53 -17 -79 15 -23 15 -23 284 -26 252 -3
270 -4 291 -23 12 -11 26 -30 31 -42 8 -22 13 -23 134 -23 121 0 126 1 134 23
5 12 19 31 31 42 21 19 40 20 293 25 l271 5 13 24 c12 25 3 57 -21 73 -12 9
-1424 9 -1444 1z"/>
<path d="M4675 3991 c-42 -19 -105 -67 -105 -81 0 -4 -18 -39 -40 -76 -22 -38
-40 -74 -40 -80 0 -6 10 -16 23 -22 12 -6 45 -25 74 -41 l52 -31 42 73 c70
121 135 176 237 197 l52 12 -24 19 c-63 50 -196 65 -271 30z"/>
<path d="M2443 3640 c-111 -26 -220 -116 -275 -227 -31 -64 -33 -73 -33 -178
0 -99 3 -116 28 -169 79 -169 219 -253 406 -244 70 3 98 10 151 35 64 30 150
96 150 114 0 5 -26 9 -57 9 -33 0 -86 10 -123 23 l-65 22 -22 -22 c-15 -15
-34 -23 -57 -23 -55 0 -86 33 -93 101 l-6 56 -56 6 c-44 5 -61 12 -78 32 -50
58 -13 145 62 145 l35 0 0 68 c0 81 19 157 55 217 14 25 22 45 18 44 -4 -1
-22 -4 -40 -9z"/>
<path d="M3406 1583 c-29 -192 -29 -202 -16 -218 26 -31 59 -16 175 77 63 50
115 95 115 98 0 4 -19 16 -42 26 -24 10 -76 41 -117 68 -41 26 -80 50 -86 53
-8 3 -17 -31 -29 -104z"/>
</g>
</svg>
